<?xml version="1.0" encoding="UTF-8"?>
<svg version="1.1" xmlns="http://www.w3.org/2000/svg" width="117" height="106">
<path d="M0 0 C1.50908959 1.01367291 2.97990482 2.08595181 4.4140625 3.203125 C5.24824707 3.84701172 6.08243164 4.49089844 6.94189453 5.15429688 C7.82731934 5.84587891 8.71274414 6.53746094 9.625 7.25 C11.50944628 8.7043832 13.39488433 10.15748215 15.28125 11.609375 C16.23386719 12.34349609 17.18648438 13.07761719 18.16796875 13.83398438 C22.44887145 17.10813685 26.78177272 20.3092365 31.125 23.5 C31.90746094 24.0784668 32.68992187 24.65693359 33.49609375 25.25292969 C36.82496297 27.70690379 40.1596385 30.13251813 43.59375 32.4375 C44.5940625 33.118125 45.594375 33.79875 46.625 34.5 C47.88183594 35.31984375 47.88183594 35.31984375 49.1640625 36.15625 C51.63752591 38.64023878 51.81003786 40.55751542 52 44 C50.9375 45.9375 50.9375 45.9375 49 47 C44.63969575 46.81445514 42.34321498 45.67168367 39 43 C39.00999275 43.9859893 39.00999275 43.9859893 39.02018738 44.99189758 C39.08645463 51.82096475 39.1317648 58.64994088 39.16479492 65.47924805 C39.17990005 68.02941598 39.20038533 70.57955786 39.22631836 73.12963867 C39.26262504 76.79091819 39.27970915 80.45185485 39.29296875 84.11328125 C39.30845261 85.2571077 39.32393646 86.40093414 39.33988953 87.579422 C39.34011612 88.64029526 39.34034271 89.70116852 39.34057617 90.79418945 C39.35056892 92.19650566 39.35056892 92.19650566 39.36076355 93.62715149 C39 96 39 96 37.96174622 97.80110168 C34.89785819 99.67356111 31.75575689 99.41670308 28.27148438 99.38818359 C27.48582596 99.39344055 26.70016754 99.39869751 25.89070129 99.40411377 C23.29151579 99.41732666 20.69294182 99.40857134 18.09375 99.3984375 C16.28918337 99.40045787 14.48461754 99.403369 12.68005371 99.40713501 C8.89713776 99.4115601 5.11443424 99.40512139 1.33154297 99.39111328 C-3.52106892 99.37402125 -8.37318306 99.38386144 -13.22577667 99.40183067 C-16.9523698 99.41266353 -20.67884463 99.40922447 -24.40544128 99.4014473 C-26.19484007 99.39944391 -27.98424955 99.40190942 -29.77363586 99.40888596 C-32.27320873 99.41649232 -34.77197192 99.40490821 -37.27148438 99.38818359 C-38.01339523 99.39425629 -38.75530609 99.40032898 -39.5196991 99.40658569 C-42.36819904 99.37121865 -44.49724898 99.30725042 -46.96174622 97.80110168 C-48.37155674 95.3554452 -48.36067094 93.61415567 -48.34057617 90.79418945 C-48.34034958 89.73331619 -48.34012299 88.67244293 -48.33988953 87.579422 C-48.32440567 86.43559555 -48.30892181 85.2917691 -48.29296875 84.11328125 C-48.28872391 82.94113571 -48.28447906 81.76899017 -48.28010559 80.56132507 C-48.26329072 76.81148466 -48.22563232 73.06217843 -48.1875 69.3125 C-48.17245684 66.77279421 -48.1587678 64.23308001 -48.14648438 61.69335938 C-48.11337796 55.46205681 -48.06315028 49.23106656 -48 43 C-48.92167969 43.66386719 -49.84335937 44.32773437 -50.79296875 45.01171875 C-54 47 -54 47 -57.3125 46.8125 C-60 46 -60 46 -61 45 C-61.08627895 41.51001655 -60.93824687 38.99905917 -58.47070312 36.37158203 C-56.28992893 34.66416664 -54.05095779 33.10427121 -51.75 31.5625 C-50.01281222 30.34329553 -48.27719264 29.12185421 -46.54296875 27.8984375 C-45.63466309 27.26518555 -44.72635742 26.63193359 -43.79052734 25.97949219 C-39.12321866 22.66868389 -34.59839413 19.17500738 -30.0625 15.6875 C-28.3063228 14.34591786 -26.54982256 13.00475847 -24.79296875 11.6640625 C-22.51427683 9.92266687 -20.23596226 8.18079712 -17.95947266 6.43652344 C-16.26745422 5.14144241 -14.57188727 3.85119027 -12.875 2.5625 C-11.98554687 1.88316406 -11.09609375 1.20382813 -10.1796875 0.50390625 C-6.1184894 -2.29817488 -4.29218171 -2.09386567 0 0 Z M-10.5 13.21875 C-11.38816406 13.90453125 -12.27632812 14.5903125 -13.19140625 15.296875 C-14.11824219 16.02390625 -15.04507813 16.7509375 -16 17.5 C-17.81152013 18.90751204 -19.62402276 20.31376046 -21.4375 21.71875 C-22.24058594 22.34716797 -23.04367188 22.97558594 -23.87109375 23.62304688 C-27 26 -27 26 -29.75959778 27.59863281 C-35.62216293 31.12133563 -35.62216293 31.12133563 -38.96151733 36.83337402 C-39.27201671 40.20971248 -39.24040693 43.42640094 -39.07421875 46.8125 C-39.06314087 47.88564453 -39.05206299 48.95878906 -39.04064941 50.06445312 C-38.98342086 54.04429843 -38.8298392 58.02228919 -38.6875 62 C-38.460625 70.91 -38.23375 79.82 -38 89 C-15.89 89 6.22 89 29 89 C29.433125 80.255 29.86625 71.51 30.3125 62.5 C30.50368408 59.77427734 30.69486816 57.04855469 30.8918457 54.24023438 C31.56781725 42.1178345 31.56781725 42.1178345 26.9777832 31.27685547 C22.03843505 26.45603631 16.4652093 22.84515587 10.48486328 19.44628906 C7.21503036 17.54311651 4.33939087 15.34595447 1.375 13 C-3.58834351 9.27347672 -5.61813717 9.41073849 -10.5 13.21875 Z " fill="#070707" transform="translate(63,4)"/>
<path d="M0 0 C0.33 0 0.66 0 1 0 C1.33 3.3 1.66 6.6 2 10 C2.76570313 8.86304688 3.53140625 7.72609375 4.3203125 6.5546875 C7.06964267 3.36030447 8.92438714 2.44344584 13.1171875 2.0703125 C15.03645594 2.05183261 16.95640059 2.07106347 18.875 2.125 C20.30779297 2.08439453 20.30779297 2.08439453 21.76953125 2.04296875 C28.30184309 2.10569328 31.80245718 3.63201617 36.54345703 8.10888672 C39.78223855 12.31398253 39.18314876 17.34219856 39.1875 22.4375 C39.19974609 23.18837891 39.21199219 23.93925781 39.22460938 24.71289062 C39.23566385 28.90253495 39.05168387 32.23160106 37 36 C32.90901439 39.69186506 29.48121492 40.71060022 24.109375 40.44921875 C20.58714556 39.69911433 19.12955091 37.79883834 17 35 C16.4225 34.05125 15.845 33.1025 15.25 32.125 C13.11269471 29.15652044 11.40692239 27.68569332 8.5 25.5625 C4.57447277 22.56823458 1.23052316 19.94720535 0 15 C-0.30670726 9.97311998 -0.23294713 5.02777562 0 0 Z M9 10 C9 12.97 9 15.94 9 19 C9.88751953 19.38478516 9.88751953 19.38478516 10.79296875 19.77734375 C17.32395807 22.94162406 20.13190849 26.38465325 23 33 C25.64 33 28.28 33 31 33 C34.23137686 27.60578923 33.90974072 20.67634947 32.4296875 14.6953125 C31.66056869 12.5931687 31.66056869 12.5931687 30 10 C26.44086771 8.81362257 23.201855 8.85384654 19.5 8.875 C18.48486328 8.86919922 18.48486328 8.86919922 17.44921875 8.86328125 C14.35926233 8.86937584 11.95320689 9.0155977 9 10 Z " fill="#0F0F0F" transform="translate(27,49)"/>
<path d="M0 0 C1.051875 -0.00386719 1.051875 -0.00386719 2.125 -0.0078125 C4 0.125 4 0.125 6 1.125 C7.49210779 5.13711206 8.29235783 8.87583471 7.3125 13.0625 C6 15.125 6 15.125 3 17.125 C0.125 17.5625 0.125 17.5625 -3 17.125 C-5.90580922 14.86492616 -7.59963294 13.10089471 -9 9.6875 C-9 6.19041266 -7.80994592 4.07454151 -6 1.125 C-3.75487738 0.00243869 -2.48543351 -0.00913762 0 0 Z M-1 6.125 C-1.99 6.62 -1.99 6.62 -3 7.125 C-2.67 8.115 -2.34 9.105 -2 10.125 C-0.68 9.795 0.64 9.465 2 9.125 C2 8.465 2 7.805 2 7.125 C1.01 6.795 0.02 6.465 -1 6.125 Z " fill="#0E0E0E" transform="translate(79,61.875)"/>
<path d="M0 0 C2.562964 2.23225897 2.93752331 3.58051369 3.4375 6.9375 C2.89919863 10.70560958 1.62436976 12.29844289 -1 15 C-3.87470493 16.43735246 -5.81894588 16.38172649 -9 16 C-11.52116774 13.87691138 -12.79806349 12.29744211 -13.3125 8.9921875 C-13.42556595 5.16207857 -13.14883682 3.22325524 -11 0 C-7.33866708 -1.62725908 -3.79755274 -0.89760337 0 0 Z M-7 6 C-6.67 7.32 -6.34 8.64 -6 10 C-5.01 9.67 -4.02 9.34 -3 9 C-3 8.01 -3 7.02 -3 6 C-4.32 6 -5.64 6 -7 6 Z " fill="#0F0E0F" transform="translate(79,42)"/>
<path d="M0 0 C2.125 1.5625 2.125 1.5625 3 4 C3.16431856 7.881048 2.86110819 10.94017454 0.375 14 C-2.94486236 15.39783678 -5.43330664 15.38214572 -9 15 C-11.203125 13.83203125 -11.203125 13.83203125 -13 12 C-13.390625 9.30078125 -13.390625 9.30078125 -13.25 6.3125 C-13.21390625 5.31863281 -13.1778125 4.32476562 -13.140625 3.30078125 C-13.09421875 2.54152344 -13.0478125 1.78226563 -13 1 C-8.56283863 -1.60771671 -4.88356323 -1.24627795 0 0 Z M-6 5 C-6.33 6.32 -6.66 7.64 -7 9 C-5.68 8.67 -4.36 8.34 -3 8 C-3.33 7.01 -3.66 6.02 -4 5 C-4.66 5 -5.32 5 -6 5 Z " fill="#0E0E0E" transform="translate(61,32)"/>
<path d="" fill="#727072" transform="translate(0,0)"/>
<path d="" fill="#1C1C1C" transform="translate(0,0)"/>
</svg>
