<?xml version="1.0" encoding="UTF-8"?>
<svg version="1.1" xmlns="http://www.w3.org/2000/svg" width="600" height="600">
<path stroke="#060606" stroke-width="6" stroke-linejoin="round" d="M0 0 C0.71269043 0.14985352 1.42538086 0.29970703 2.15966797 0.45410156 C11.43976093 2.46974546 20.23208173 5.33244394 29 9 C30.11890625 9.45246094 31.2378125 9.90492187 32.390625 10.37109375 C43.83187911 15.10407892 55.11373486 20.47784174 65 28 C65.72960937 28.42796875 66.45921875 28.8559375 67.2109375 29.296875 C70.79196053 31.48360615 74.12837454 33.94383245 77.5 36.4375 C78.15097656 36.91509766 78.80195313 37.39269531 79.47265625 37.88476562 C83.0454223 40.51562063 86.55822421 43.19827374 90 46 C90.55945313 46.45503906 91.11890625 46.91007812 91.6953125 47.37890625 C94.248116 49.49229276 96.65938707 51.65938707 99 54 C100.2375 54.9590625 100.2375 54.9590625 101.5 55.9375 C104 58 104 58 105.625 60.1875 C106.95882513 62.29998833 106.95882513 62.29998833 110 63 C111.99452693 64.66210578 113.09114068 66.16156757 114.375 68.4375 C116.24190948 71.38147265 118.27335577 72.83107845 121 75 C122.70957248 76.83636942 124.3322356 78.73279597 125.95703125 80.64453125 C129.17929718 84.3596868 132.58214205 87.91163057 135.9609375 91.484375 C137.85136883 93.81663128 138.63094905 95.07492954 139 98 C139.66 98 140.32 98 141 98 C142.2175293 99.31005859 142.2175293 99.31005859 143.57421875 101.1484375 C144.07373047 101.81963623 144.57324219 102.49083496 145.08789062 103.18237305 C145.61576172 103.90593994 146.14363281 104.62950684 146.6875 105.375 C147.22697266 106.10436768 147.76644531 106.83373535 148.32226562 107.58520508 C151.83268849 112.34882362 155.26406118 117.16326045 158.6171875 122.0390625 C160.06446948 124.14559193 160.06446948 124.14559193 162.125 126.5625 C164.38030433 129.49439563 166.02186431 132.6126623 167.7734375 135.86328125 C169.26680181 138.46477894 171.11353175 140.67335583 173 143 C174.01847486 144.99065541 175.01517978 146.99248185 176 149 C176.88327949 150.50742652 177.78070591 152.00660057 178.6875 153.5 C187.07933492 167.38278864 195.31047801 181.50567765 201.07421875 196.71484375 C202.0831868 199.2053345 203.26424845 201.55186483 204.5 203.9375 C206.70080312 208.23845976 208.37687875 212.58636451 209.96484375 217.14453125 C211.06100108 220.1682709 212.29472939 223.1068915 213.5625 226.0625 C215.42967361 230.47220789 216.89306095 234.84122816 218.1875 239.4453125 C219.11144283 242.35040198 220.28093757 245.08131527 221.5 247.875 C223.5660664 252.71217029 224.94415771 257.41050692 226.1171875 262.52734375 C227.44591346 267.75405783 229.14300479 272.85846627 230.84350586 277.97485352 C232.39852415 282.74663026 233.55100049 287.46146006 234.47924805 292.39208984 C235.02614423 295.13092953 235.67979586 297.82436694 236.3671875 300.53125 C239.90556995 314.48482496 242.53592377 328.37230287 244.5234375 342.62597656 C245.01493225 346.10571909 245.53573231 349.58012018 246.0625 353.0546875 C248.93053792 372.14792447 251.06394676 391.12232368 251.5 410.4375 C251.56429199 411.99247192 251.56429199 411.99247192 251.62988281 413.57885742 C251.69403414 420.82855162 250.04066371 424.80510934 245 430 C244.46826172 430.51747803 243.93652344 431.03495605 243.38867188 431.56811523 C241.84813899 433.04063033 241.84813899 433.04063033 240.625 435.375 C238.74812115 438.40688121 236.5515006 440.50648805 234 443 C232.92710745 444.1991152 231.86554766 445.40842024 230.8125 446.625 C227.0846177 450.92952641 223.24995523 455.13127074 219.41015625 459.3359375 C217.38590464 461.5734409 215.40278675 463.83596532 213.4375 466.125 C209.5251416 470.61489702 205.4739489 475.06365392 201 479 C200.34 479 199.68 479 199 479 C199 479.66 199 480.32 199 481 C197.56640625 482.48046875 197.56640625 482.48046875 195.5625 484.1875 C194.83933594 484.80496094 194.11617188 485.42242187 193.37109375 486.05859375 C190.27068135 488.59715217 187.09499312 491.02672987 183.8828125 493.421875 C181.76657842 495.0453317 181.76657842 495.0453317 180 498 C178.6078125 498.680625 178.6078125 498.680625 177.1875 499.375 C173.70501172 501.15038618 171.71535479 503.21676134 169 506 C167.01941161 507.36200126 165.01682386 508.69225412 163 510 C154.81390672 515.34375479 154.81390672 515.34375479 146.9375 521.125 C142.26781721 524.67471822 137.1879887 527.28877995 132 530 C130.53200447 530.7841319 129.06460035 531.5693716 127.59765625 532.35546875 C115.39258437 538.87265539 103.16793394 545.39249158 90.0546875 549.90625 C87.63441559 550.77284352 85.2631204 551.68901377 82.8828125 552.65625 C74.45325296 556.07017585 66.20647666 558.95970983 57.33251953 560.9699707 C54.45913604 561.63482142 51.62001551 562.36980676 48.78369141 563.17797852 C37.03754927 566.50682653 25.43779483 568.48251693 13.3125 569.8125 C12.38412323 569.91739746 11.45574646 570.02229492 10.49923706 570.13037109 C-15.2106828 572.99779328 -40.18561152 572.79721238 -65.8828125 569.40576172 C-68.76301017 569.03084877 -71.64446593 568.69831968 -74.53125 568.37890625 C-87.44976446 566.85815733 -99.66631287 563.57218348 -112.11083984 559.84570312 C-115.01592179 558.99533944 -117.93305843 558.21125471 -120.859375 557.4375 C-124.75942676 556.38369637 -128.42600771 555.14399657 -132.125 553.5 C-135.55615064 552.01375609 -138.92417758 550.65331948 -142.5 549.5625 C-147.30448315 548.03976763 -151.65418951 545.74418142 -156.10546875 543.40234375 C-158.96957798 541.93695821 -158.96957798 541.93695821 -162.02734375 540.99609375 C-165.05370089 539.98200561 -167.60096204 538.69505667 -170.375 537.125 C-173.48519972 535.37264559 -176.60454342 533.68938825 -179.80859375 532.1171875 C-184.21456064 529.93088542 -188.45223368 527.49801231 -192.6875 525 C-193.42033203 524.57460938 -194.15316406 524.14921875 -194.90820312 523.7109375 C-198.86762418 521.38312639 -202.43844402 518.91634656 -206 516 C-208.6794645 514.75983331 -208.6794645 514.75983331 -211 514 C-211 513.34 -211 512.68 -211 512 C-211.78117187 511.64421875 -211.78117187 511.64421875 -212.578125 511.28125 C-215.79245117 509.58076777 -218.75864843 507.55778691 -221.75 505.5 C-222.35199219 505.09652344 -222.95398438 504.69304687 -223.57421875 504.27734375 C-225.08722202 503.23779729 -226.54872163 502.12411157 -228 501 C-228 500.34 -228 499.68 -228 499 C-228.94875 498.7525 -229.8975 498.505 -230.875 498.25 C-234.43303673 496.82678531 -234.55234022 496.30893663 -236 493 C-237.83284443 491.87483915 -237.83284443 491.87483915 -240 491 C-243.2332301 489.34193328 -245.38352254 487.68862637 -247.625 484.875 C-249.74604217 481.79020875 -249.74604217 481.79020875 -253 481 C-254.6484375 479.29296875 -254.6484375 479.29296875 -256.375 477.1875 C-258.52681196 474.59710217 -260.06756259 472.95687494 -262.9375 471.125 C-265 469 -265 469 -265.203125 465.0546875 C-265.0224282 456.69164994 -264.41875527 448.34103637 -263.8125 440 C-263.74853027 439.11582397 -263.68456055 438.23164795 -263.61865234 437.32067871 C-262.25792485 419.00962377 -259.22190905 401.47254786 -254.64770508 383.68115234 C-254.06081119 381.25172579 -253.59327204 378.84007938 -253.1875 376.375 C-251.9440338 369.8859873 -249.64916046 363.71293175 -247.51171875 357.4765625 C-246.22012024 353.69865689 -245.05800361 349.89507969 -243.9375 346.0625 C-242.40857299 340.99792929 -240.42963459 336.32775299 -238.15234375 331.55859375 C-237.07405701 329.16443167 -236.25948244 326.82265382 -235.5 324.3125 C-234.27655849 320.40582882 -232.44296493 317.35334645 -230.18359375 313.9609375 C-229.00922803 312.01528868 -228.28062371 310.21262187 -227.5625 308.0625 C-226.15584415 303.97840263 -223.9421112 300.75969011 -221.48046875 297.234375 C-220.08194383 295.12367249 -218.96103749 293.03368357 -217.875 290.75 C-216.29180538 287.43314184 -214.33744904 284.84876602 -212 282 C-211.39800781 280.9275 -210.79601562 279.855 -210.17578125 278.75 C-208.13493595 275.12639095 -205.75308208 271.83045054 -203.1875 268.5625 C-202.52947388 267.71619019 -202.52947388 267.71619019 -201.8581543 266.8527832 C-198.90038515 263.07590623 -195.85236378 259.40046323 -192.64453125 255.83203125 C-191.49785967 254.55462277 -190.37164445 253.25868165 -189.26171875 251.94921875 C-185.89114905 247.98076529 -182.44643846 244.48839679 -178.3828125 241.2265625 C-176.85896891 240.02824461 -176.85896891 240.02824461 -176 238 C-177.61455078 237.50693359 -177.61455078 237.50693359 -179.26171875 237.00390625 C-189.51247827 233.72130671 -197.52059382 229.66239057 -206 223 C-206.86496094 222.34257812 -207.72992188 221.68515625 -208.62109375 221.0078125 C-223.28083607 208.63489369 -232.03618381 188.8086178 -238 171 C-238.2990625 170.24074219 -238.598125 169.48148438 -238.90625 168.69921875 C-242.06173532 160.00702539 -242.866024 149.4114696 -239.828125 140.6015625 C-237.35746298 135.85126903 -234.72523995 131.75638997 -230 129 C-229.34 129 -228.68 129 -228 129 C-228 128.34 -228 127.68 -228 127 C-219.21291426 122.50375093 -210.42351017 118.25025796 -201.31640625 114.4375 C-197.03218501 112.58049951 -192.88956945 110.49034507 -188.734375 108.36328125 C-186.32927205 107.16416564 -183.91681449 106.0955477 -181.4375 105.0625 C-170.55602314 100.28957784 -159.03571079 92.679901 -152 83 C-151.505 81.515 -151.505 81.515 -151 80 C-150.34 80 -149.68 80 -149 80 C-148.62875 78.948125 -148.62875 78.948125 -148.25 77.875 C-147 75 -147 75 -145.125 72.3125 C-142.92112857 68.87705336 -141.52197324 65.57614265 -140.0703125 61.78125 C-138.52009726 57.75295346 -136.82321846 53.78860505 -135.14453125 49.8125 C-134.2091708 47.51400334 -133.39884983 45.22978232 -132.625 42.875 C-128.66930805 32.24545907 -120.51353441 24.67183208 -111 19 C-110.25041016 18.52892822 -109.50082031 18.05785645 -108.72851562 17.57250977 C-90.70588149 6.36899467 -70.82190811 1.05477419 -50 -2 C-49.29415771 -2.10908691 -48.58831543 -2.21817383 -47.86108398 -2.33056641 C-31.97323101 -4.59193949 -15.62952721 -3.28932875 0 0 Z M-82.90625 32.91796875 C-85 34 -85 34 -88.5625 34.9375 C-93.25541673 36.3880379 -97.22757946 38.8520391 -101 42 C-101 42.66 -101 43.32 -101 44 C-101.99 44 -102.98 44 -104 44 C-108.27985042 48.09037788 -110.58639289 52.94929097 -112.23828125 58.53515625 C-117.61833433 75.94445621 -128.24971022 99.49980681 -144 110 C-144 110.66 -144 111.32 -144 112 C-144.99 112.309375 -144.99 112.309375 -146 112.625 C-148.63381936 113.83216721 -150.37798397 114.98382691 -152.625 116.75 C-159.73580234 122.25080936 -167.95767007 126.05470607 -176 130 C-175.84402344 130.63164062 -175.68804687 131.26328125 -175.52734375 131.9140625 C-172.97435472 146.85377607 -174.68289178 160.18614905 -182.93359375 173.00390625 C-186.69963243 178.04731477 -190.27724758 181.37707181 -196 184 C-196 184.66 -196 185.32 -196 186 C-198.97 186.99 -198.97 186.99 -202 188 C-201.45028435 191.84800954 -199.72962142 193.35309439 -197 196 C-196.731875 196.639375 -196.46375 197.27875 -196.1875 197.9375 C-194.58366104 200.72311503 -192.40778526 202.00567062 -189.75390625 203.75390625 C-188 205 -188 205 -186.6796875 206.48828125 C-184.23906972 208.68483725 -181.63824451 209.50717089 -178.5625 210.625 C-177.42941406 211.05039063 -176.29632813 211.47578125 -175.12890625 211.9140625 C-165.44801978 214.8126786 -156.05139955 213.92945734 -146.25 212.25 C-143.84152003 211.86484022 -141.43265723 211.48206753 -139.0234375 211.1015625 C-137.23631348 210.81587402 -137.23631348 210.81587402 -135.41308594 210.52441406 C-130.57892866 209.78165513 -125.73195986 209.19559459 -120.875 208.625 C-107.59617893 207.03659654 -94.3761695 205.03993543 -81.14990234 203.06884766 C-80.28404007 202.9403241 -79.4181778 202.81180054 -78.52607727 202.67938232 C-76.90311807 202.4382748 -75.28036792 202.19575368 -73.65788269 201.95147705 C-69.05091146 201.26702167 -64.45900713 200.72421143 -59.81738281 200.33004761 C-57.84016627 200.14267904 -57.84016627 200.14267904 -56.30859375 198.390625 C-56.02113281 197.68421875 -55.73367187 196.9778125 -55.4375 196.25 C-53.48306083 192.02105671 -51.31322458 188.03034204 -48.875 184.0625 C-48.21242188 182.96035156 -47.54984375 181.85820312 -46.8671875 180.72265625 C-45 178 -45 178 -42 176 C-36.82681279 175.31130944 -32.40355869 175.15786478 -27.875 177.875 C-24.73524764 181.433386 -24.66316176 184.01791939 -24.71484375 188.625 C-25.16649182 192.38667162 -26.84217377 194.95672093 -29 198 C-32.22093911 202.72404403 -34.96806492 207.55601949 -37.6328125 212.609375 C-39 215 -39 215 -41 217 C-41.68753301 218.65816784 -42.35561283 220.32459336 -43 222 C-45.13416966 224.13416966 -49.90507615 223.52793725 -52.875 223.75 C-63.53859884 224.62577214 -74.10114062 226.04074644 -84.6875 227.5625 C-85.47292175 227.67436646 -86.25834351 227.78623291 -87.06756592 227.90148926 C-89.32036456 228.22342694 -91.57242228 228.55003855 -93.82421875 228.87890625 C-94.50458694 228.97677933 -95.18495514 229.0746524 -95.88594055 229.17549133 C-98.71221867 229.59540777 -101.28117561 230.0937252 -104 231 C-104.20786348 240.22586644 -103.61123717 249.15730726 -102.5 258.3125 C-102.35691406 259.54162109 -102.21382813 260.77074219 -102.06640625 262.03710938 C-101.71755683 265.02558604 -101.3620103 268.01309413 -101 271 C-98.37527143 272.08399463 -95.75021136 273.16717572 -93.125 274.25 C-92.34721191 274.57137939 -91.56942383 274.89275879 -90.76806641 275.22387695 C-86.65238659 276.92111307 -82.52751531 278.58194672 -78.375 280.1875 C-74.33022495 281.78898454 -70.75289155 283.80491249 -67 286 C-65.948125 286.391875 -64.89625 286.78375 -63.8125 287.1875 C-54.07735609 291.19995796 -43.14405964 300.23167171 -37.125 308.9375 C-36.42375 309.948125 -35.7225 310.95875 -35 312 C-34.34 312 -33.68 312 -33 312 C-32.938125 312.66 -32.87625 313.32 -32.8125 314 C-31.86391493 317.50246797 -30.27034438 319.95196772 -28.25390625 322.9375 C-25.78506524 326.99839735 -24.70503433 330.96203691 -24.03515625 335.640625 C-23.79442383 337.24744141 -23.79442383 337.24744141 -23.54882812 338.88671875 C-23.22690238 341.11304857 -22.90656657 343.33960893 -22.58789062 345.56640625 C-21.070197 355.66420845 -19.0896593 365.85512585 -11.75 373.375 C0.27757104 386.52855642 0.80873602 404.0592931 0.24414062 420.85839844 C-0.28400721 427.65460475 -2.06390963 435.06390963 -7 440 C-7.83679382 443.57539179 -8.17348213 445.47955362 -7 449 C-5.50404669 450.52032049 -5.50404669 450.52032049 -3.6875 451.9375 C-1.70711696 453.54844065 0.14066699 455.1435145 1.9296875 456.96875 C7.42683666 462.36217937 13.87824032 466.17585392 21 469 C22.94334033 469.96752363 24.88025909 470.94799574 26.8125 471.9375 C31.37904334 474.24931256 35.96557207 476.22697934 40.7421875 478.0546875 C42.93350614 478.97216001 44.90103637 480.03153013 46.9375 481.25 C49.84624861 483.24806947 49.84624861 483.24806947 53 483 C53 483.66 53 484.32 53 485 C54.51835881 486.34583598 54.51835881 486.34583598 56.5 487.6875 C68.23628946 496.28861196 77.30101956 505.95175277 82 520 C82.65817741 521.67003734 83.32273136 523.33761334 84 525 C87.59710114 524.43303134 90.20164593 523.50174926 93.3125 521.625 C96.16612979 519.97413979 98.88614954 518.58145705 102 517.5 C106.63542587 515.88320832 110.77513762 513.47428283 115 511 C115 510.34 115 509.68 115 509 C115.88171875 508.89945313 116.7634375 508.79890625 117.671875 508.6953125 C121.2100902 507.95610792 123.26151375 506.87030669 126.25 504.875 C127.19875 504.24722656 128.1475 503.61945313 129.125 502.97265625 C132.67120682 500.53945728 136.187423 498.06614887 139.6953125 495.578125 C142.70388557 493.51801734 145.79759911 491.74043527 149 490 C149 489.34 149 488.68 149 488 C149.55558594 487.74347656 150.11117188 487.48695313 150.68359375 487.22265625 C161.4810614 481.52348698 171.44047352 472.61310724 180 464 C182.51367662 461.73807835 185.05305163 459.50826915 187.59765625 457.28125 C189.99458897 455.00513827 191.95421445 452.58960196 194 450 C194.845625 449.34 195.69125 448.68 196.5625 448 C199.09766209 446.15348203 199.09766209 446.15348203 200.4375 443.5625 C201.91206703 441.14421008 202.94499365 440.12558093 205.125 438.4375 C208.0954434 435.91908059 208.27520033 435.50319841 209 432 C209.55945313 431.76667969 210.11890625 431.53335937 210.6953125 431.29296875 C214.0467487 429.41275624 215.99263422 426.52513263 218.25 423.5 C218.70890625 422.90574219 219.1678125 422.31148438 219.640625 421.69921875 C222.17143943 418.68562634 222.17143943 418.68562634 223 415 C223.99 414.67 224.98 414.34 226 414 C226.82718158 410.49193393 227.05666202 407.50954334 226.765625 403.921875 C226.64900513 402.44835571 226.64900513 402.44835571 226.5300293 400.94506836 C226.43761963 399.8906958 226.34520996 398.83632324 226.25 397.75 C226.15565674 396.63955322 226.06131348 395.52910645 225.96411133 394.38500977 C223.19134872 362.8289669 218.69305862 331.71317019 210.77832031 301.03564453 C210.09777963 298.3813651 209.4420335 295.72350369 208.8046875 293.05859375 C207.15844085 286.1950597 205.24960238 279.51406205 202.92578125 272.84765625 C201.99359272 269.98029152 201.29418002 267.12641341 200.625 264.1875 C199.31942014 258.71410751 197.3487721 253.61760994 195.1940918 248.4375 C193.72659272 244.89100581 192.45405037 241.38774334 191.4375 237.6875 C190.20515139 233.28312981 188.30157058 229.46690617 186.18359375 225.42578125 C185.08386131 223.17187417 184.29164676 221.01953523 183.5625 218.625 C182.04500221 213.73432142 179.74817346 209.32906684 177.41015625 204.78515625 C176.32573361 202.64334643 175.3391992 200.53325631 174.4375 198.3125 C172.90824695 194.78856906 171.10749504 191.53131543 169.18359375 188.2109375 C168 186 168 186 167.03125 183.53515625 C165.93716292 180.84552551 164.59303473 178.52771242 163.0625 176.0625 C161.42954986 173.39717994 159.91427957 170.82110519 158.5625 168 C156.58557049 164.20429533 154.11780886 160.86467391 151.6328125 157.38671875 C149.79860457 154.70561578 148.42523755 151.91525862 147 149 C145.75192625 147.17404001 144.45174525 145.39435123 143.140625 143.61328125 C141.87764205 141.82693893 140.88093544 140.00212599 140 138 C139.34 138 138.68 138 138 138 C137.566875 136.8553125 137.566875 136.8553125 137.125 135.6875 C136.03730987 132.84970692 136.03730987 132.84970692 134 130 C133.34 130 132.68 130 132 130 C131.87625 129.360625 131.7525 128.72125 131.625 128.0625 C131.315625 127.0415625 131.315625 127.0415625 131 126 C130.34 125.67 129.68 125.34 129 125 C129.02320313 126.16015625 129.04640625 127.3203125 129.0703125 128.515625 C129.27539838 142.88243065 127.73801344 154.65823869 122 168 C121.70351563 168.72960937 121.40703125 169.45921875 121.1015625 170.2109375 C115.71585353 182.31643013 104.8030284 193.17709582 92.48046875 198.0625 C91.66191406 198.371875 90.84335937 198.68125 90 199 C88.96488281 199.433125 87.92976563 199.86625 86.86328125 200.3125 C80.52421569 202.90408081 74.85954214 204.8269665 68 205 C66.81857422 205.05800781 66.81857422 205.05800781 65.61328125 205.1171875 C55.36493485 205.40677971 43.67133984 203.78089323 35 198 C34.071875 197.72285156 33.14375 197.44570312 32.1875 197.16015625 C22.92579258 193.78916715 15.72247768 185.36894779 11 177 C10.55140625 176.34 10.1028125 175.68 9.640625 175 C0.87802664 161.39220019 2.71761943 143.36212959 3.06152344 127.92602539 C3.42118026 110.14351961 1.71415071 93.89292589 -4 77 C-4.433125 75.2365625 -4.433125 75.2365625 -4.875 73.4375 C-6.31883592 69.02577913 -8.40567496 65.06820338 -10.5625 60.96484375 C-11.98722562 58.02634717 -13.03672284 55.11675734 -14 52 C-14.66 52 -15.32 52 -16 52 C-16.26941406 51.26910156 -16.53882813 50.53820312 -16.81640625 49.78515625 C-20.91376737 40.14351111 -28.85655199 32.47332061 -36 25 C-36.56203125 24.39027344 -37.1240625 23.78054687 -37.703125 23.15234375 C-44.692172 16.94219657 -75.71817666 28.95254829 -82.90625 32.91796875 Z M-2 26 C-0.60816103 28.88123676 0.94275225 31.5917697 2.625 34.3125 C16.8045211 57.80602025 16.8045211 57.80602025 18.94140625 68.09375 C19.66682858 71.48391817 20.43516142 74.85763905 21.25390625 78.2265625 C21.46853516 79.1134375 21.68316406 80.0003125 21.90429688 80.9140625 C22.3451079 82.72962837 22.78783393 84.54473031 23.23242188 86.359375 C23.44576172 87.24367187 23.65910156 88.12796875 23.87890625 89.0390625 C24.0704126 89.82490723 24.26191895 90.61075195 24.45922852 91.42041016 C26.00145618 98.77714946 26.1338537 105.87783769 26.140625 113.36328125 C26.15895027 115.80144165 26.17852032 118.23959296 26.19921875 120.67773438 C26.22816799 124.4958441 26.25000011 128.31336518 26.25048828 132.1315918 C26.25383594 135.83434443 26.28845733 139.53576189 26.328125 143.23828125 C26.3210553 144.36776688 26.3139856 145.4972525 26.30670166 146.66096497 C26.42203876 154.23369454 28.02712669 159.54450573 32 166 C32.66 166 33.32 166 34 166 C34.3403125 167.11375 34.3403125 167.11375 34.6875 168.25 C37.19873396 173.51163307 41.83735921 175.59348024 47.0625 177.6875 C48.08472656 178.10386719 49.10695313 178.52023438 50.16015625 178.94921875 C60.93242528 182.93510647 72.13160726 181.45083476 82.51171875 176.8984375 C87.58144999 174.30072397 90.61408434 171.54680103 94 167 C94.9590625 166.13181641 94.9590625 166.13181641 95.9375 165.24609375 C98.52224029 162.43127241 99.71519165 159.64491457 101.1875 156.125 C101.69667969 154.93132812 102.20585937 153.73765625 102.73046875 152.5078125 C109.37636594 134.14468733 103.59312033 113.13508027 96 96 C94.57115162 93.50216136 93.06294424 91.19392005 91.36328125 88.875 C90.08247644 87.11343464 89.07248502 85.36291825 88.0625 83.4375 C84.54986581 77.12939444 79.13244601 71.99738164 74 67 C72.86498047 65.84177734 72.86498047 65.84177734 71.70703125 64.66015625 C62.75755383 55.86564814 52.47492123 47.36040086 41.05859375 42.03125 C38.62394534 40.81161588 36.36752838 39.38657793 34.0625 37.9375 C30.29268984 35.6492996 26.76806741 34.03610969 22.55078125 32.78515625 C19.29340586 31.78250318 16.1297425 30.56826637 12.9375 29.375 C7.87120666 27.54718236 3.36727363 26.32203642 -2 26 Z M-204.03125 142.29296875 C-205.74828125 143.23076172 -205.74828125 143.23076172 -207.5 144.1875 C-209.21703125 145.10595703 -209.21703125 145.10595703 -210.96875 146.04296875 C-213.78693297 147.86243997 -215.37262886 149.10234275 -217 152 C-216.77339982 156.98520398 -214.82124648 161.40729148 -213 166 C-207.39060263 164.64014609 -204.15990985 160.57211648 -201 156 C-198.86354745 151.48721251 -197.51254661 147.03701832 -198 142 C-201.03627579 140.61952848 -201.03627579 140.61952848 -204.03125 142.29296875 Z M-134.16796875 237.78515625 C-136.86978053 239.57676278 -139.66677708 241.20855431 -142.4609375 242.8515625 C-143.22277344 243.42003906 -143.22277344 243.42003906 -144 244 C-144 244.66 -144 245.32 -144 246 C-144.556875 246.268125 -145.11375 246.53625 -145.6875 246.8125 C-150.59326217 249.33167517 -154.17881651 251.98775734 -158 256 C-160.72618679 258.79792855 -163.47705464 261.40822424 -166.5 263.875 C-169.53204536 266.4269167 -171.68371576 269.12426029 -173.87890625 272.40625 C-175.3575032 274.50822754 -177.18609865 276.18609865 -179 278 C-179.474375 278.804375 -179.94875 279.60875 -180.4375 280.4375 C-182.26052817 283.4272662 -184.52928009 285.52928009 -187 288 C-188.04892238 289.63631892 -189.04906703 291.30485863 -190 293 C-190.721875 294.051875 -191.44375 295.10375 -192.1875 296.1875 C-194.18056711 298.72253373 -194.18056711 298.72253373 -194 301 C-194.66 301 -195.32 301 -196 301 C-196.99 303.97 -197.98 306.94 -199 310 C-199.66 310 -200.32 310 -201 310 C-201.53109375 311.14597656 -202.0621875 312.29195313 -202.609375 313.47265625 C-203.32275919 315.0026776 -204.03630973 316.5326214 -204.75 318.0625 C-205.27207031 319.19075195 -205.27207031 319.19075195 -205.8046875 320.34179688 C-207.43619348 323.83140688 -209.09688259 327.23692483 -211.0703125 330.546875 C-213.18766957 334.33582975 -214.67759134 338.10948353 -216.125 342.1875 C-218.80806709 349.63817093 -218.80806709 349.63817093 -220.0546875 351.98828125 C-221.1755077 354.20043401 -221.1755077 354.20043401 -221.88037109 357.60888672 C-222.75558735 361.19183003 -223.86266302 364.62702644 -225.09332275 368.10148621 C-228.47098313 377.66078176 -230.81057339 387.25712079 -232.76074219 397.1965332 C-233.25235471 399.69948856 -233.76152297 402.19839139 -234.2734375 404.69726562 C-237.07528271 418.53694323 -239.16930976 432.39311914 -240.0625 446.5 C-240.15982422 447.51835937 -240.25714844 448.53671875 -240.35742188 449.5859375 C-240.72792016 455.13363373 -240.72792016 455.13363373 -238.61987305 460.11743164 C-236.84298295 461.92628106 -235.01885305 463.46881659 -233 465 C-232.09636719 465.78246094 -231.19273437 466.56492187 -230.26171875 467.37109375 C-228.98748047 468.39396484 -228.98748047 468.39396484 -227.6875 469.4375 C-226.7490625 470.19289063 -225.810625 470.94828125 -224.84375 471.7265625 C-223.9053125 472.47679687 -222.966875 473.22703125 -222 474 C-221.1028125 474.72960937 -220.205625 475.45921875 -219.28125 476.2109375 C-214.97106568 479.7032254 -210.64992617 482.96743945 -206 486 C-204.72371681 486.95106328 -203.4533381 487.91007822 -202.1875 488.875 C-195.18163 494.97654031 -195.18163 494.97654031 -187 498 C-187 498.66 -187 499.32 -187 500 C-186.030625 500.37125 -185.06125 500.7425 -184.0625 501.125 C-181.01890695 502.42066612 -178.4080198 503.99677637 -175.6875 505.875 C-171.72525968 508.60199334 -167.6649456 510.76307235 -163.3359375 512.84765625 C-161.32313976 513.84059159 -159.4198993 514.90425089 -157.5 516.0625 C-154.05936128 518.07830951 -150.45204876 519.48036908 -146.72265625 520.875 C-144.50191871 521.79260748 -142.44651253 522.79104723 -140.3203125 523.8984375 C-135.63683771 526.27235144 -130.78077563 527.95038361 -125.8125 529.625 C-124.06868026 530.22038805 -122.32518023 530.81671349 -120.58203125 531.4140625 C-119.7722583 531.69008301 -118.96248535 531.96610352 -118.12817383 532.25048828 C-116.52531839 532.81499054 -114.94363564 533.44015182 -113.375 534.09375 C-110.05843824 535.35928015 -106.6434505 536.10079778 -103.1875 536.875 C-98.75030674 537.88475817 -94.32041678 538.89474701 -89.92578125 540.078125 C-81.01325296 542.46953371 -72.29400586 543.88163132 -63.11376953 544.7734375 C-61.11044389 544.98816217 -59.11503744 545.27334804 -57.12109375 545.5625 C-36.09516506 548.57687772 -13.21600782 548.36097264 7.78955078 545.31201172 C10.18814163 544.97344323 12.58999262 544.6901707 14.99609375 544.41015625 C30.74271878 542.48470187 45.78611926 538.37975355 61 534 C57.19574716 520.18455548 49.9801609 511.53038685 38 504 C37.16726563 503.46890625 36.33453125 502.9378125 35.4765625 502.390625 C31.10769366 499.67520499 26.93152539 497.43836423 22.06640625 495.77734375 C18.70539632 494.51299408 15.56578146 492.82276045 12.375 491.18359375 C10.43869317 490.21862505 8.4437619 489.37204428 6.4375 488.5625 C1.93913391 486.51778814 -1.93719758 483.78984181 -6 481 C-9.27342959 478.69402795 -9.27342959 478.69402795 -13 478 C-13.20625 477.443125 -13.4125 476.88625 -13.625 476.3125 C-15.17864851 473.69954569 -17.10139742 472.17303929 -19.46875 470.3046875 C-21.6422862 468.45274594 -23.302989 466.28443789 -25 464 C-28.19617068 465.06539023 -30.70159899 466.43395793 -33.375 468.4375 C-36.7336847 470.91308226 -40.10796079 472.45660514 -44 474 C-46.2349854 475.00202498 -48.46358938 476.01730964 -50.69140625 477.03515625 C-70.84424821 485.4577484 -99.05113229 484.4155529 -119.20727539 476.38305664 C-122.50298652 474.98576171 -125.75107273 473.50312689 -129 472 C-129.89074219 471.65839844 -130.78148437 471.31679688 -131.69921875 470.96484375 C-134.17073949 469.92839957 -136.17822395 468.65560569 -138.375 467.125 C-141.12797034 465.21944981 -143.79987798 463.57624158 -146.8125 462.125 C-150.88095774 459.41269484 -152.64212026 456.67110632 -154 452 C-153.82982429 447.74560724 -152.42786458 443.99802082 -151 440 C-142.90137764 438.62257038 -137.48708382 438.92716207 -130.6328125 443.62109375 C-128.94706265 444.84208079 -127.263499 446.06609136 -125.58203125 447.29296875 C-121.63347381 449.90343713 -117.42689397 451.39702993 -113 453 C-111.205625 453.804375 -111.205625 453.804375 -109.375 454.625 C-100.97635705 458.04666935 -93.3069822 458.36541611 -84.3125 458.375 C-83.12205078 458.39949219 -81.93160156 458.42398438 -80.70507812 458.44921875 C-69.57911715 458.48551879 -59.70350434 455.94584427 -50 450.5 C-48.96875 449.9328125 -47.9375 449.365625 -46.875 448.78125 C-35.8815975 441.97012019 -26.05849405 430.81309932 -23 418 C-22.00994171 409.14050936 -22.87333455 401.9000205 -27 394 C-27.33515625 393.33097656 -27.6703125 392.66195312 -28.015625 391.97265625 C-29.39387088 389.38571061 -30.76090565 387.22485669 -32.90234375 385.2109375 C-41.07562599 376.59626757 -44.1533935 363.50770689 -45.6640625 352.12109375 C-47.11768559 339.27790495 -47.11768559 339.27790495 -53 328 C-53.57363281 327.19046875 -54.14726562 326.3809375 -54.73828125 325.546875 C-57.74085072 321.16258548 -57.74085072 321.16258548 -61.90234375 318.05859375 C-64 317 -64 317 -66.21484375 314.69140625 C-69.6760791 311.34667812 -73.35656947 309.22800205 -77.5625 306.9375 C-78.36316895 306.49704346 -79.16383789 306.05658691 -79.98876953 305.6027832 C-85.25983756 302.7691206 -90.44766511 300.54467541 -96.203125 298.859375 C-99.28203642 297.91334077 -102.16825731 296.71325192 -105.125 295.4375 C-114.7507162 291.34412758 -114.7507162 291.34412758 -125 290 C-124.98332275 289.27546631 -124.96664551 288.55093262 -124.94946289 287.80444336 C-124.83712637 278.79589154 -125.44022054 269.93620055 -126.22680664 260.96801758 C-126.43926797 258.54231486 -126.64310506 256.1159977 -126.84570312 253.68945312 C-126.97866983 252.12756179 -127.11211592 250.56571118 -127.24609375 249.00390625 C-127.3065538 248.28819962 -127.36701385 247.57249298 -127.42930603 246.83509827 C-127.78163057 242.8509888 -128.28699132 238.93557732 -129 235 C-131.02792388 235 -132.54917533 236.67838995 -134.16796875 237.78515625 Z " fill="#060606" transform="translate(306,15)"/>
<path stroke="#060606" stroke-width="6" stroke-linejoin="round" d="M0 0 C5.37252382 5.42405882 7.54211643 9.76693825 8.0625 17.3125 C7.50304687 17.27769531 6.94359375 17.24289063 6.3671875 17.20703125 C-4.75489627 16.83152681 -15.43513971 19.90044286 -25.9375 23.3125 C-25.9375 23.9725 -25.9375 24.6325 -25.9375 25.3125 C-27.9175 25.6425 -29.8975 25.9725 -31.9375 26.3125 C-34.39242919 21.40264161 -33.52316237 14.6663381 -32.9375 9.3125 C-31.46477718 5.98651861 -29.59309034 3.76575964 -26.9375 1.3125 C-26.133125 0.508125 -25.32875 -0.29625 -24.5 -1.125 C-17.70180128 -5.27024312 -6.27073381 -5.15144154 0 0 Z " fill="#0C0C0C" transform="translate(247.9375,80.6875)"/>
<path stroke="#060606" stroke-width="6" stroke-linejoin="round" d="M0 0 C3.05312832 4.56626229 4.83744844 9.4967674 4 15 C2.68048541 19.5018733 1.59688286 21.53443137 -2.125 24.4375 C-6.96846802 26.79792429 -11.92722097 27.05589704 -17.0234375 25.3046875 C-20.10741027 23.75619484 -21.95922931 22.05786807 -23.9375 19.25 C-25.78005383 13.61395299 -25.73983672 9.11288227 -23.5 3.6875 C-21.817363 0.65039988 -20.33945999 -0.68835253 -17.125 -2 C-10.74562676 -3.81593989 -5.77003221 -3.5261308 0 0 Z " fill="#0A0A0A" transform="translate(228,370)"/>
</svg>